#!OML:ASF E:\motion texture\Top Level 1\Subject 1\Session 1\male.ASF
:FULLY-SPECIFIED
:DEGREES
521
root -22.2434 18.158 1.46763 169.6 -73.3099 -160.193
lowerback -1.68374 -4.29368 5.79023
upperback -2.23293 -5.98294 6.39097
thorax -1.26039 -3.13807 3.34074
lowerneck -16.8301 -5.5747 -8.20855
upperneck 9.8836 -6.35763 5.31906
head 6.16917 -2.98528 2.36154
rclavicle 7.7526e-015 -2.8625e-014
rhumerus 4.42435 18.3972 -75.7453
rradius 98.6155
rwrist 35.11
rhand -45.9371 -31.1655
rfingers 7.12502
rthumb -18.6851 -420.288
lclavicle 7.7526e-015 -2.8625e-014
lhumerus 10.1609 -38.8241 102.823
lradius 76.4928
lwrist 45.8837
lhand -12.0842 50.2998
lfingers 7.12502
lthumb 13.9759 79.81
rfemur -19.4133 6.12858 28.6997
rtibia 20.2231
rfoot -5.18016 -5.85875
rtoes 22.4795
lfemur -21.7201 5.29022 -13.1838
ltibia 51.6071
lfoot -4.03429 -0.743408
ltoes -17.3534
522
root -22.385 18.1654 1.4554 170.077 -72.8622 -160.601
lowerback -1.65172 -4.28205 5.8814
upperback -2.1552 -5.97672 6.46152
thorax -1.19944 -3.13677 3.36237
lowerneck -16.9908 -5.47143 -8.12102
upperneck 9.86983 -6.2143 5.24669
head 6.17588 -2.9158 2.33767
rclavicle 3.29983e-014 1.59028e-014
rhumerus 3.68435 18.612 -75.9307
rradius 98.5802
rwrist 35.1427
rhand -46.1351 -31.3779
rfingers 7.12502
rthumb -18.8756 -420.482
lclavicle 3.29983e-014 1.59028e-014
lhumerus 9.84822 -39.1316 102.889
lradius 76.6462
lwrist 46.4134
lhand -11.9769 50.3996
lfingers 7.12502
lthumb 14.0793 79.9027
rfemur -18.9202 6.30737 28.707
rtibia 20.1502
rfoot -5.53491 -5.64147
rtoes 22.1951
lfemur -22.437 5.513 -13.1253
ltibia 51.3567
lfoot -4.50158 -0.182621
ltoes -17.0523
523
root -22.526 18.1718 1.44315 170.534 -72.4232 -160.985
lowerback -1.62143 -4.27095 5.96738
upperback -2.07604 -5.97132 6.52672
thorax -1.13604 -3.13564 3.38108
lowerneck -17.1468 -5.3687 -8.03308
upperneck 9.84776 -6.07332 5.18113
head 6.17975 -2.84707 2.31585
rclavicle -3.63776e-014 3.33958e-014
rhumerus 2.89456 18.8348 -76.1051
rradius 98.5799
rwrist 35.1495
rhand -46.3105 -31.5575
rfingers 7.12502
rthumb -19.0443 -420.645
lclavicle -3.63776e-014 3.33958e-014
lhumerus 9.50691 -39.4754 102.943
lradius 76.8217
lwrist 46.8835
lhand -11.8643 50.4533
lfingers 7.12502
lthumb 14.1877 79.9488
rfemur -18.4361 6.48846 28.706
rtibia 20.0804
rfoot -5.89242 -5.44178
rtoes 21.8794
lfemur -23.1377 5.71889 -13.0627
ltibia 51.0083
lfoot -4.97447 0.383904
ltoes -16.7395
524
root -22.6665 18.1771 1.43087 170.976 -71.9934 -161.351
lowerback -1.59345 -4.26091 6.04595
upperback -1.99539 -5.96744 6.58663
thorax -1.06956 -3.13497 3.39806
lowerneck -17.2989 -5.26562 -7.94552
upperneck 9.81776 -5.93336 5.12311
head 6.18097 -2.77838 2.29657
rclavicle -4.90004e-014 1.11319e-013
rhumerus 2.06434 19.0652 -76.2659
rradius 98.6153
rwrist 35.1339
rhand -46.459 -31.6848
rfingers 7.12502
rthumb -19.1871 -420.758
lclavicle -4.90004e-014 1.11319e-013
lhumerus 9.14025 -39.8448 102.993
lradius 77.0174
lwrist 47.2905
lhand -11.7369 50.4662
lfingers 7.12502
lthumb 14.3105 79.9531
rfemur -17.9629 6.66994 28.6951
rtibia 20.0173
rfoot -6.25242 -5.25533
rtoes 21.5492
lfemur -23.8215 5.90806 -12.9967
ltibia 50.5633
lfoot -5.44762 0.952244
ltoes -16.4267
525
root -22.8066 18.1814 1.41859 171.409 -71.573 -161.704
lowerback -1.56761 -4.25148 6.11724
upperback -1.91304 -5.96437 6.63998
thorax -1.00005 -3.13436 3.41192
lowerneck -17.4481 -5.16254 -7.85774
upperneck 9.78029 -5.79512 5.0735
head 6.17989 -2.70998 2.27991
rclavicle 7.92157e-014 -2.8625e-014
rhumerus 1.20294 19.301 -76.41
rradius 98.6876
rwrist 35.0974
rhand -46.5839 -31.759
rfingers 7.12502
rthumb -19.3072 -420.821
lclavicle 7.92157e-014 -2.8625e-014
lhumerus 8.75767 -40.2433 103.031
lradius 77.2347
lwrist 47.644
lhand -11.6001 50.4375
lfingers 7.12502
lthumb 14.4423 79.915
rfemur -17.4999 6.85083 28.6729
rtibia 19.9608
rfoot -6.61424 -5.08094
rtoes 21.2044
lfemur -24.4853 6.07985 -12.9274
ltibia 50.021
lfoot -5.91073 1.51827
ltoes -16.1147
526
root -22.9463 18.1846 1.40629 171.83 -71.1623 -162.043
lowerback -1.54377 -4.24322 6.18123
upperback -1.8293 -5.96285 6.68741
thorax -0.927819 -3.1342 3.42336
lowerneck -17.5974 -5.05827 -7.76812
upperneck 9.73791 -5.65693 5.03015
head 6.17754 -2.6411 2.26505
rclavicle -7.94145e-014 6.83819e-014
rhumerus 0.323164 19.5424 -76.5334
rradius 98.7967
rwrist 35.0414
rhand -46.6829 -31.7778
rfingers 7.12502
rthumb -19.4024 -420.83
lclavicle -7.94145e-014 6.83819e-014
lhumerus 8.36701 -40.6675 103.055
lradius 77.4739
lwrist 47.951
lhand -11.4567 50.3657
lfingers 7.12502
lthumb 14.5805 79.8332
rfemur -17.0488 7.03016 28.6408
rtibia 19.9136
rfoot -6.97791 -4.91664
rtoes 20.8433
lfemur -25.1293 6.23438 -12.853
ltibia 49.3829
lfoot -6.3555 2.07668
ltoes -15.8013
527
root -23.0857 18.1867 1.39402 172.238 -70.7622 -162.367
lowerback -1.51997 -4.23581 6.23797
upperback -1.7464 -5.96211 6.73001
thorax -0.856196 -3.13422 3.43381
lowerneck -17.7378 -4.95408 -7.6804
upperneck 9.688 -5.52023 4.99324
head 6.17185 -2.57271 2.25262
rclavicle 1.15295e-014 6.04305e-014
rhumerus -0.57034 19.7882 -76.6303
rradius 98.9441
rwrist 34.9678
rhand -46.7511 -31.7403
rfingers 7.12502
rthumb -19.468 -420.786
lclavicle 1.15295e-014 6.04305e-014
lhumerus 7.9688 -41.1122 103.07
lradius 77.7341
lwrist 48.2104
lhand -11.3053 50.2504
lfingers 7.12502
lthumb 14.7264 79.7073
rfemur -16.6065 7.20709 28.5994
rtibia 19.8751
rfoot -7.34364 -4.76231
rtoes 20.4682
lfemur -25.7489 6.37132 -12.7724
ltibia 48.6484
lfoot -6.77569 2.62083
ltoes -15.5285
528
root -23.225 18.1877 1.38175 172.629 -70.3716 -162.672
lowerback -1.49722 -4.22964 6.2895
upperback -1.66424 -5.96282 6.76813
thorax -0.784668 -3.13478 3.44243
lowerneck -17.8779 -4.84855 -7.58547
upperneck 9.63758 -5.38342 4.95265
head 6.16577 -2.50438 2.23791
rclavicle 1.82882e-014 -3.81667e-014
rhumerus -1.46382 20.0379 -76.7003
rradius 99.1287
rwrist 34.8807
rhand -46.7914 -31.6473
rfingers 7.12502
rthumb -19.5067 -420.689
lclavicle 1.82882e-014 -3.81667e-014
lhumerus 7.56963 -41.5725 103.074
lradius 78.0162
lwrist 48.4246
lhand -11.1442 50.097
lfingers 7.12502
lthumb 14.8816 79.5425
rfemur -16.1746 7.38258 28.5512
rtibia 19.848
rfoot -7.71189 -4.61793
rtoes 20.0766
lfemur -26.3432 6.49172 -12.6821
ltibia 47.8186
lfoot -7.1602 3.14663
ltoes -15.2769
529
root -23.3642 18.1874 1.36951 173.001 -69.9919 -162.957
lowerback -1.47637 -4.22512 6.33701
upperback -1.58356 -5.9656 6.80201
thorax -0.71363 -3.13621 3.44876
lowerneck -18.0135 -4.74157 -7.48763
upperneck 9.58529 -5.24636 4.91369
head 6.15848 -2.43582 2.22341
rclavicle -3.77691e-014 -9.54166e-015
rhumerus -2.34819 20.2923 -76.7377
rradius 99.3493
rwrist 34.776
rhand -46.8044 -31.4854
rfingers 7.12502
rthumb -19.5192 -420.526
lclavicle -3.77691e-014 -9.54166e-015
lhumerus 7.17454 -42.0454 103.064
lradius 78.3203
lwrist 48.5946
lhand -10.9722 49.9074
lfingers 7.12502
lthumb 15.0473 79.3405
rfemur -15.754 7.55589 28.4975
rtibia 19.8333
rfoot -8.08203 -4.48275
rtoes 19.6669
lfemur -26.9122 6.59501 -12.5811
ltibia 46.897
lfoot -7.49866 3.64697
ltoes -15.0223
530
root -23.5033 18.186 1.3573 173.353 -69.6234 -163.218
lowerback -1.45872 -4.22246 6.38211
upperback -1.50486 -5.97085 6.83215
thorax -0.642972 -3.13875 3.45237
lowerneck -18.1422 -4.63335 -7.38718
upperneck 9.53136 -5.10926 4.87524
head 6.14966 -2.36727 2.2088
rclavicle -1.2921e-014 -6.67916e-014
rhumerus -3.21447 20.5508 -76.7386
rradius 99.6032
rwrist 34.6619
rhand -46.7935 -31.2554
rfingers 7.12502
rthumb -19.5088 -420.297
lclavicle -1.2921e-014 -6.67916e-014
lhumerus 6.78899 -42.5271 103.039
lradius 78.646
lwrist 48.7231
lhand -10.7872 49.6842
lfingers 7.12502
lthumb 15.2255 79.1039
rfemur -15.3433 7.72768 28.4402
rtibia 19.8314
rfoot -8.45436 -4.35746
rtoes 19.2359
lfemur -27.4542 6.68173 -12.4674
ltibia 45.8883
lfoot -7.79224 4.12009
ltoes -14.764
531
root -23.6427 18.1833 1.34512 173.684 -69.2669 -163.457
lowerback -1.44684 -4.22154 6.42584
upperback -1.42882 -5.97867 6.85863
thorax -0.57205 -3.14248 3.45257
lowerneck -18.2649 -4.52394 -7.28425
upperneck 9.47738 -4.97228 4.83826
head 6.14 -2.29872 2.19437
rclavicle -5.28767e-014 5.08889e-014
rhumerus -4.05341 20.8107 -76.6997
rradius 99.8883
rwrist 34.5452
rhand -46.7637 -30.9708
rfingers 7.12502
rthumb -19.4801 -420.015
lclavicle -5.28767e-014 5.08889e-014
lhumerus 6.41692 -43.0145 102.998
lradius 78.9927
lwrist 48.8099
lhand -10.5881 49.4314
lfingers 7.12502
lthumb 15.4173 78.8365
rfemur -14.9413 7.89486 28.3794
rtibia 19.8415
rfoot -8.82823 -4.23924
rtoes 18.7849
lfemur -27.9669 6.74978 -12.3412
ltibia 44.793
lfoot -8.0404 4.564
ltoes -14.5243
532
root -23.782 18.1794 1.3329 173.991 -68.9217 -163.668
lowerback -1.43577 -4.22247 6.46625
upperback -1.35848 -5.98859 6.88481
thorax -0.506241 -3.14733 3.45456
lowerneck -18.3781 -4.41299 -7.18152
upperneck 9.42358 -4.83442 4.8024
head 6.12904 -2.22984 2.18057
rclavicle -6.44062e-014 -3.81667e-014
rhumerus -4.85823 21.0735 -76.6155
rradius 100.204
rwrist 34.43
rhand -46.7166 -30.6325
rfingers 7.12502
rthumb -19.4348 -419.681
lclavicle -6.44062e-014 -3.81667e-014
lhumerus 6.06364 -43.5031 102.938
lradius 79.3603
lwrist 48.8602
lhand -10.3766 49.1519
lfingers 7.12502
lthumb 15.621 78.5411
rfemur -14.5539 8.06606 28.3187
rtibia 19.8691
rfoot -9.20333 -4.13494
rtoes 18.3137
lfemur -28.4561 6.80168 -12.1971
ltibia 43.6224
lfoot -8.24548 4.98324
ltoes -14.3082
533
root -23.9215 18.1742 1.3207 174.276 -68.5869 -163.853
lowerback -1.42888 -4.22506 6.50674
upperback -1.2929 -6.00076 6.90924
thorax -0.443199 -3.15334 3.4546
lowerneck -18.4849 -4.30027 -7.07644
upperneck 9.37349 -4.69566 4.76617
head 6.11829 -2.16061 2.16647
rclavicle -2.0276e-014 2.38542e-014
rhumerus -5.62009 21.337 -76.4854
rradius 100.549
rwrist 34.3228
rhand -46.651 -30.2418
rfingers 7.12502
rthumb -19.3718 -419.297
lclavicle -2.0276e-014 2.38542e-014
lhumerus 5.73376 -43.9903 102.856
lradius 79.7491
lwrist 48.8774
lhand -10.1518 48.8511
lfingers 7.12502
lthumb 15.8375 78.2233
rfemur -14.1787 8.23796 28.2583
rtibia 19.913
rfoot -9.57962 -4.0402
rtoes 17.8225
lfemur -28.9199 6.8368 -12.0355
ltibia 42.3819
lfoot -8.40781 5.38262
ltoes -14.1323
